<svg width="1680" height="411" viewBox="0 0 1680 411" fill="none" xmlns="http://www.w3.org/2000/svg">
<path d="M813.806 411C776.73 411 749.85 403.231 733.166 387.693C716.65 372.155 707.971 346.343 707.128 310.255C706.791 293.882 706.538 276.84 706.37 259.13C706.201 241.421 706.117 223.46 706.117 205.249C706.117 187.038 706.201 169.078 706.37 151.368C706.538 133.659 706.791 116.617 707.128 100.244C707.971 64.3232 716.65 38.6775 733.166 23.3067C749.85 7.76891 776.73 0 813.806 0C851.05 0 877.762 7.76891 893.94 23.3067C910.119 38.6775 918.798 64.3232 919.978 100.244C920.652 116.951 921.157 134.16 921.495 151.87C921.832 169.579 922 187.54 922 205.751C922 223.795 921.832 241.671 921.495 259.381C921.157 276.924 920.652 293.882 919.978 310.255C918.798 346.343 910.119 372.155 893.94 387.693C877.762 403.231 851.05 411 813.806 411ZM813.806 349.851C823.749 349.851 831.248 347.679 836.304 343.335C841.36 338.824 843.972 332.476 844.141 324.289C844.983 307.248 845.573 288.535 845.91 268.152C846.247 247.77 846.416 226.802 846.416 205.249C846.416 183.697 846.247 162.729 845.91 142.346C845.573 121.963 844.983 103.251 844.141 86.2098C843.972 78.1902 841.276 72.0085 836.051 67.6647C830.827 63.3208 823.412 61.1488 813.806 61.1488C804.2 61.1488 796.7 63.3208 791.308 67.6647C786.083 72.0085 783.302 78.1902 782.965 86.2098C782.291 103.251 781.701 121.963 781.196 142.346C780.859 162.729 780.69 183.697 780.69 205.249C780.69 226.802 780.859 247.77 781.196 268.152C781.701 288.535 782.291 307.248 782.965 324.289C783.302 332.476 786.083 338.824 791.308 343.335C796.7 347.679 804.2 349.851 813.806 349.851Z" fill="white"/>
<path d="M463.25 411V0H540.708V167.996H594.929V0H672.386V411H594.929V235.811H540.708V411H463.25Z" fill="white"/>
<path d="M321.447 411C283.226 411 255.998 403.231 239.762 387.693C223.696 372.155 215.239 346.343 214.394 310.255C214.225 296.388 214.056 280.349 213.886 262.138C213.717 243.927 213.633 225.048 213.633 205.5C213.633 185.785 213.717 166.823 213.886 148.612C214.056 130.234 214.225 113.944 214.394 99.7427C214.901 69.1683 223.526 44.9427 240.269 27.0659C257.181 9.02196 284.241 0 321.447 0C357.978 0 384.445 7.76891 400.85 23.3067C417.254 38.6775 425.964 64.3232 426.979 100.244C427.148 105.757 427.233 111.772 427.233 118.288C427.233 124.637 427.148 131.069 426.979 137.585C426.81 143.934 426.641 149.865 426.472 155.378H350.367C350.536 149.196 350.705 141.929 350.874 133.575C351.044 125.054 351.128 116.617 351.128 108.263C351.128 99.7427 351.044 92.3915 350.874 86.2098C350.705 78.1902 347.999 72.0085 342.757 67.6647C337.683 63.3208 330.58 61.1488 321.447 61.1488C311.808 61.1488 304.282 63.3208 298.87 67.6647C293.627 72.0085 290.837 78.1902 290.498 86.2098C289.822 103.752 289.314 122.715 288.976 143.098C288.807 163.481 288.723 184.282 288.723 205.5C288.723 226.718 288.807 247.519 288.976 267.902C289.314 288.118 289.822 306.913 290.498 324.289C290.837 332.476 293.627 338.824 298.87 343.335C304.282 347.679 311.808 349.851 321.447 349.851C331.426 349.851 339.121 347.679 344.532 343.335C349.944 338.824 352.735 332.476 352.904 324.289C353.073 318.274 353.158 311.09 353.158 302.737C353.327 294.216 353.327 285.779 353.158 277.425C353.158 268.904 353.073 261.637 352.904 255.622H429.008C429.347 263.641 429.516 272.747 429.516 282.938C429.516 293.13 429.347 302.235 429.008 310.255C427.994 346.343 419.115 372.155 402.372 387.693C385.798 403.231 358.823 411 321.447 411Z" fill="white"/>
<path d="M0 411V0H179.902V67.815H77.9924V167.996H174.703V235.811H77.9924V343.185H179.902V411H0Z" fill="white"/>
<path d="M1372.5 315.558H1401.8L1432.17 411H1405.56L1399.78 392.315H1374.38L1368.74 411H1342L1372.5 315.558ZM1395.62 374.84L1387.15 341.233L1378.28 374.84H1395.62Z" fill="white"/>
<path d="M1307.93 411V360.725L1291.94 396.079H1277.97L1261.98 360.725V411H1235.77V315.558H1264.4L1284.96 360.456L1305.65 315.558H1334.14V411H1307.93Z" fill="white"/>
<path d="M1145.09 411V315.558H1188.9C1193.56 315.558 1197.86 316.499 1201.8 318.381C1205.74 320.263 1209.15 322.817 1212.01 326.043C1214.88 329.18 1217.07 332.72 1218.6 336.663C1220.21 340.606 1221.02 344.594 1221.02 348.627C1221.02 352.301 1220.48 355.841 1219.4 359.246C1218.33 362.652 1216.76 365.788 1214.7 368.656C1212.64 371.434 1210.18 373.854 1207.31 375.915L1227.47 411H1198.71L1181.91 381.695H1171.3V411H1145.09ZM1171.3 358.843H1187.83C1188.9 358.843 1189.93 358.44 1190.92 357.633C1191.9 356.827 1192.71 355.662 1193.33 354.138C1194.05 352.615 1194.41 350.778 1194.41 348.627C1194.41 346.386 1194.01 344.549 1193.2 343.115C1192.48 341.592 1191.54 340.427 1190.38 339.62C1189.3 338.814 1188.23 338.41 1187.15 338.41H1171.3V358.843Z" fill="white"/>
<path d="M1077.5 315.558H1106.8L1137.17 411H1110.56L1104.78 392.315H1079.38L1073.74 411H1047L1077.5 315.558ZM1100.62 374.84L1092.15 341.233L1083.28 374.84H1100.62Z" fill="white"/>
<path d="M1621.28 206.71V253.624H1595.07V158.182H1615.5L1653.8 206.71V158.182H1680V253.624H1659.17L1621.28 206.71Z" fill="white"/>
<path d="M1552.42 253.624V158.182H1578.63V253.624H1552.42Z" fill="white"/>
<path d="M1497.09 189.369C1497.09 189.369 1496.33 188.921 1494.8 188.025C1493.28 187.129 1491.26 186.143 1488.76 185.067C1486.25 183.902 1483.52 182.872 1480.56 181.976C1477.6 181.079 1474.69 180.631 1471.82 180.631C1469.59 180.631 1467.75 180.99 1466.32 181.707C1464.88 182.424 1464.17 183.634 1464.17 185.336C1464.17 186.949 1464.88 188.249 1466.32 189.235C1467.75 190.22 1469.76 191.117 1472.36 191.923C1475.05 192.73 1478.23 193.715 1481.9 194.88C1487.82 196.673 1492.92 198.734 1497.22 201.064C1501.52 203.394 1504.84 206.396 1507.17 210.07C1509.49 213.655 1510.66 218.45 1510.66 224.454C1510.66 230.189 1509.63 235.029 1507.57 238.972C1505.51 242.825 1502.73 245.917 1499.24 248.247C1495.74 250.577 1491.85 252.28 1487.55 253.355C1483.25 254.341 1478.86 254.834 1474.38 254.834C1469.81 254.834 1465.02 254.386 1460 253.49C1455.07 252.504 1450.28 251.205 1445.62 249.591C1440.96 247.889 1436.71 245.917 1432.86 243.677L1444.14 220.69C1444.14 220.69 1445.04 221.228 1446.83 222.303C1448.62 223.379 1451 224.588 1453.95 225.933C1456.91 227.277 1460.18 228.487 1463.76 229.562C1467.44 230.638 1471.11 231.175 1474.78 231.175C1477.65 231.175 1479.62 230.817 1480.69 230.1C1481.86 229.293 1482.44 228.263 1482.44 227.008C1482.44 225.126 1481.46 223.692 1479.48 222.706C1477.51 221.631 1474.92 220.645 1471.69 219.749C1468.55 218.763 1465.06 217.643 1461.21 216.388C1455.65 214.507 1451.09 212.4 1447.5 210.07C1443.92 207.651 1441.28 204.828 1439.57 201.602C1437.87 198.286 1437.02 194.298 1437.02 189.638C1437.02 182.558 1438.68 176.643 1441.99 171.894C1445.31 167.144 1449.65 163.559 1455.03 161.14C1460.49 158.63 1466.36 157.376 1472.63 157.376C1477.29 157.376 1481.77 157.958 1486.07 159.123C1490.46 160.199 1494.53 161.543 1498.3 163.156C1502.15 164.769 1505.51 166.293 1508.38 167.727L1497.09 189.369Z" fill="white"/>
<path d="M1427.12 230.772V253.624H1359.12V158.182H1425.91V181.035H1385.33V194.477H1420V215.716H1385.33V230.772H1427.12Z" fill="white"/>
<path d="M1316.59 253.624V203.349L1300.6 238.703H1286.63L1270.64 203.349V253.624H1244.43V158.182H1273.06L1293.62 203.08L1314.31 158.182H1342.8V253.624H1316.59Z" fill="white"/>
<path d="M1176.84 158.182H1206.14L1236.51 253.624H1209.9L1204.12 234.939H1178.72L1173.08 253.624H1146.34L1176.84 158.182ZM1199.96 217.464L1191.49 183.858L1182.62 217.464H1199.96Z" fill="white"/>
<path d="M1096.72 254.296C1090.54 254.296 1084.63 253.221 1078.98 251.07C1073.43 248.83 1068.5 245.604 1064.2 241.392C1059.9 237.09 1056.5 231.937 1053.99 225.933C1051.57 219.839 1050.36 212.893 1050.36 205.097C1050.36 198.376 1051.61 192.147 1054.12 186.412C1056.63 180.676 1060.08 175.658 1064.47 171.356C1068.95 166.965 1074.14 163.559 1080.06 161.14C1085.97 158.72 1092.37 157.51 1099.27 157.51C1107.87 157.51 1115.67 159.392 1122.65 163.156C1129.64 166.83 1134.84 171.894 1138.24 178.346L1118.76 193.267C1116.88 189.503 1114.05 186.501 1110.29 184.261C1106.53 181.931 1102.54 180.766 1098.33 180.766C1095.2 180.766 1092.33 181.393 1089.73 182.648C1087.13 183.902 1084.85 185.65 1082.88 187.89C1081 190.131 1079.52 192.819 1078.44 195.956C1077.46 199.003 1076.97 202.363 1076.97 206.038C1076.97 209.802 1077.5 213.207 1078.58 216.254C1079.65 219.301 1081.13 221.945 1083.01 224.185C1084.98 226.336 1087.31 228.039 1090 229.293C1092.69 230.458 1095.69 231.041 1099 231.041C1103.21 231.041 1107.25 230.01 1111.1 227.949C1114.95 225.798 1118.44 222.796 1121.58 218.943V244.483C1114.41 251.025 1106.13 254.296 1096.72 254.296ZM1120.24 221.631H1102.63V202.812H1141.87V253.624H1120.24V221.631Z" fill="white"/>
<path d="M1612.31 31.9932C1612.31 31.9932 1611.54 31.5451 1610.02 30.6489C1608.5 29.7528 1606.48 28.767 1603.97 27.6916C1601.47 26.5266 1598.73 25.496 1595.78 24.5998C1592.82 23.7036 1589.91 23.2556 1587.04 23.2556C1584.8 23.2556 1582.97 23.614 1581.53 24.331C1580.1 25.0479 1579.38 26.2577 1579.38 27.9604C1579.38 29.5735 1580.1 30.873 1581.53 31.8588C1582.97 32.8445 1584.98 33.7407 1587.58 34.5473C1590.27 35.3538 1593.45 36.3396 1597.12 37.5046C1603.03 39.297 1608.14 41.3581 1612.44 43.6882C1616.74 46.0182 1620.06 49.0204 1622.38 52.6947C1624.71 56.2793 1625.88 61.0738 1625.88 67.0782C1625.88 72.8136 1624.85 77.6529 1622.79 81.5961C1620.73 85.4496 1617.95 88.5414 1614.46 90.8714C1610.96 93.2015 1607.07 94.9042 1602.77 95.9796C1598.47 96.9653 1594.08 97.4582 1589.6 97.4582C1585.03 97.4582 1580.24 97.0102 1575.22 96.114C1570.29 95.1282 1565.5 93.8288 1560.84 92.2157C1556.18 90.5129 1551.93 88.5414 1548.07 86.301L1559.36 63.3143C1559.36 63.3143 1560.26 63.852 1562.05 64.9274C1563.84 66.0028 1566.22 67.2126 1569.17 68.5568C1572.13 69.9011 1575.4 71.1109 1578.98 72.1863C1582.65 73.2617 1586.33 73.7994 1590 73.7994C1592.87 73.7994 1594.84 73.4409 1595.91 72.724C1597.08 71.9175 1597.66 70.8869 1597.66 69.6322C1597.66 67.7503 1596.67 66.3164 1594.7 65.3306C1592.73 64.2552 1590.13 63.2694 1586.91 62.3733C1583.77 61.3875 1580.28 60.2673 1576.43 59.0126C1570.87 57.1307 1566.3 55.0247 1562.72 52.6947C1559.14 50.275 1556.5 47.4521 1554.79 44.2259C1553.09 40.9101 1552.24 36.9221 1552.24 32.262C1552.24 25.1823 1553.9 19.2676 1557.21 14.5179C1560.53 9.76823 1564.87 6.18356 1570.25 3.7639C1575.71 1.25464 1581.58 0 1587.85 0C1592.51 0 1596.99 0.582509 1601.29 1.74753C1605.68 2.82293 1609.75 4.16718 1613.52 5.78028C1617.37 7.39338 1620.73 8.91687 1623.59 10.3507L1612.31 31.9932Z" fill="white"/>
<path d="M1496.32 97.0549C1488.7 97.0549 1482.16 95.8003 1476.7 93.291C1471.23 90.7818 1466.75 87.3315 1463.26 82.9403C1459.86 78.5491 1457.35 73.5305 1455.74 67.8847C1454.12 62.1492 1453.32 56.1449 1453.32 49.8717V0.806519H1479.52V49.8717C1479.52 53.0083 1479.83 56.0105 1480.46 58.8782C1481.09 61.7459 1482.07 64.3 1483.42 66.5404C1484.76 68.7809 1486.46 70.5732 1488.52 71.9174C1490.67 73.1721 1493.27 73.7994 1496.32 73.7994C1499.45 73.7994 1502.1 73.1721 1504.25 71.9174C1506.4 70.5732 1508.1 68.7809 1509.35 66.5404C1510.7 64.2104 1511.68 61.6115 1512.31 58.7438C1512.93 55.876 1513.25 52.9187 1513.25 49.8717V0.806519H1539.45V49.8717C1539.45 56.5033 1538.56 62.6869 1536.76 68.4224C1535.06 74.1579 1532.46 79.1764 1528.97 83.478C1525.48 87.7796 1521 91.1402 1515.53 93.5599C1510.16 95.8899 1503.75 97.0549 1496.32 97.0549Z" fill="white"/>
<path d="M1394.91 97.0549C1387.65 97.0549 1381.07 95.7107 1375.16 93.0222C1369.24 90.244 1364.14 86.5697 1359.84 81.9993C1355.63 77.3392 1352.36 72.1415 1350.03 66.406C1347.79 60.5809 1346.67 54.5766 1346.67 48.393C1346.67 42.0302 1347.88 35.9811 1350.3 30.2456C1352.71 24.5101 1356.07 19.402 1360.37 14.9211C1364.76 10.3507 1369.92 6.76602 1375.83 4.16713C1381.83 1.56824 1388.37 0.268799 1395.45 0.268799C1402.7 0.268799 1409.29 1.65786 1415.2 4.43598C1421.11 7.12448 1426.17 10.7988 1430.38 15.4588C1434.6 20.1189 1437.82 25.3615 1440.06 31.1866C1442.39 36.9221 1443.55 42.8368 1443.55 48.9307C1443.55 55.2039 1442.34 61.2082 1439.93 66.9437C1437.6 72.6792 1434.24 77.8321 1429.85 82.4026C1425.55 86.8834 1420.44 90.4681 1414.53 93.1566C1408.62 95.7555 1402.08 97.0549 1394.91 97.0549ZM1373.27 48.6619C1373.27 51.8881 1373.72 55.0247 1374.62 58.0716C1375.51 61.029 1376.86 63.7175 1378.65 66.1371C1380.44 68.4672 1382.68 70.3491 1385.37 71.783C1388.15 73.1272 1391.42 73.7994 1395.18 73.7994C1398.94 73.7994 1402.21 73.0824 1404.99 71.6486C1407.76 70.2147 1410 68.2879 1411.71 65.8683C1413.5 63.359 1414.8 60.6257 1415.6 57.6683C1416.5 54.6214 1416.95 51.5296 1416.95 48.393C1416.95 45.1668 1416.5 42.075 1415.6 39.1177C1414.71 36.1603 1413.36 33.5166 1411.57 31.1866C1409.78 28.7669 1407.5 26.885 1404.72 25.5407C1401.94 24.1965 1398.72 23.5244 1395.04 23.5244C1391.28 23.5244 1388.01 24.2413 1385.23 25.6752C1382.55 27.109 1380.31 29.0358 1378.52 31.4554C1376.72 33.7855 1375.38 36.474 1374.48 39.5209C1373.68 42.4783 1373.27 45.5253 1373.27 48.6619Z" fill="white"/>
<path d="M1309.26 96.2484V0.806519H1335.47V96.2484H1309.26Z" fill="white"/>
<path d="M1218.58 96.2484V0.806519H1262.39C1267.05 0.806519 1271.35 1.7475 1275.29 3.62945C1279.23 5.5114 1282.63 8.06548 1285.5 11.2917C1288.37 14.4283 1290.56 17.9681 1292.08 21.9113C1293.7 25.8544 1294.5 29.8424 1294.5 33.8751C1294.5 37.5494 1293.97 41.0893 1292.89 44.4947C1291.82 47.9001 1290.25 51.0367 1288.19 53.9045C1286.13 56.6826 1283.66 59.1022 1280.8 61.1634L1300.95 96.2484H1272.2L1255.4 66.9437H1244.78V96.2484H1218.58ZM1244.78 44.0914H1261.31C1262.39 44.0914 1263.42 43.6882 1264.4 42.8816C1265.39 42.0751 1266.19 40.91 1266.82 39.3865C1267.54 37.8631 1267.9 36.0259 1267.9 33.8751C1267.9 31.6347 1267.49 29.7976 1266.69 28.3637C1265.97 26.8402 1265.03 25.6752 1263.87 24.8686C1262.79 24.0621 1261.71 23.6588 1260.64 23.6588H1244.78V44.0914Z" fill="white"/>
<path d="M1206.4 73.3961V96.2484H1138.4V0.806519H1205.19V23.6588H1164.61V37.1013H1199.27V58.3405H1164.61V73.3961H1206.4Z" fill="white"/>
<path d="M1113.25 31.9932C1113.25 31.9932 1112.49 31.5451 1110.96 30.6489C1109.44 29.7528 1107.42 28.767 1104.92 27.6916C1102.41 26.5266 1099.68 25.496 1096.72 24.5998C1093.76 23.7036 1090.85 23.2556 1087.98 23.2556C1085.75 23.2556 1083.91 23.614 1082.48 24.331C1081.04 25.0479 1080.33 26.2577 1080.33 27.9604C1080.33 29.5735 1081.04 30.873 1082.48 31.8588C1083.91 32.8445 1085.92 33.7407 1088.52 34.5473C1091.21 35.3538 1094.39 36.3396 1098.06 37.5046C1103.98 39.297 1109.08 41.3581 1113.38 43.6882C1117.68 46.0182 1121 49.0204 1123.33 52.6947C1125.66 56.2793 1126.82 61.0738 1126.82 67.0782C1126.82 72.8136 1125.79 77.6529 1123.73 81.5961C1121.67 85.4496 1118.89 88.5414 1115.4 90.8714C1111.9 93.2015 1108.01 94.9042 1103.71 95.9796C1099.41 96.9653 1095.02 97.4582 1090.54 97.4582C1085.97 97.4582 1081.18 97.0102 1076.16 96.114C1071.23 95.1282 1066.44 93.8288 1061.78 92.2157C1057.12 90.5129 1052.87 88.5414 1049.02 86.301L1060.3 63.3143C1060.3 63.3143 1061.2 63.852 1062.99 64.9274C1064.78 66.0028 1067.16 67.2126 1070.11 68.5568C1073.07 69.9011 1076.34 71.1109 1079.92 72.1863C1083.6 73.2617 1087.27 73.7994 1090.94 73.7994C1093.81 73.7994 1095.78 73.4409 1096.85 72.724C1098.02 71.9175 1098.6 70.8869 1098.6 69.6322C1098.6 67.7503 1097.62 66.3164 1095.64 65.3306C1093.67 64.2552 1091.08 63.2694 1087.85 62.3733C1084.72 61.3875 1081.22 60.2673 1077.37 59.0126C1071.81 57.1307 1067.25 55.0247 1063.66 52.6947C1060.08 50.275 1057.44 47.4521 1055.73 44.2259C1054.03 40.9101 1053.18 36.9221 1053.18 32.262C1053.18 25.1823 1054.84 19.2676 1058.15 14.5179C1061.47 9.76823 1065.81 6.18356 1071.19 3.7639C1076.65 1.25464 1082.52 0 1088.79 0C1093.45 0 1097.93 0.582509 1102.23 1.74753C1106.62 2.82293 1110.69 4.16718 1114.46 5.78028C1118.31 7.39338 1121.67 8.91687 1124.54 10.3507L1113.25 31.9932Z" fill="white"/>
</svg>
